<svg preserveAspectRatio="none" overflow="visible" style="display: block;" width="20" height="20" viewBox="0 0 20 20" fill="none" xmlns="http://www.w3.org/2000/svg">
<g id="icon" clip-path="url(#clip0_0_25)">
<path id="Vector" d="M7.58333 7.5C7.79063 6.9597 8.17895 6.50804 8.68206 6.22207C9.18518 5.93611 9.77192 5.83354 10.3422 5.93186C10.9125 6.03019 11.431 6.32332 11.8093 6.76126C12.1876 7.19919 12.4023 7.75481 12.4167 8.33333C12.4167 10 9.91667 10.8333 9.91667 10.8333M10 14.1667H10.0083M10 18.3333C12.2101 18.3333 14.3298 17.4554 15.8926 15.8926C17.4554 14.3298 18.3333 12.2101 18.3333 10C18.3333 7.78986 17.4554 5.67025 15.8926 4.10744C14.3298 2.54464 12.2101 1.66667 10 1.66667C7.78986 1.66667 5.67025 2.54464 4.10744 4.10744C2.54464 5.67025 1.66667 7.78986 1.66667 10C1.66667 12.2101 2.54464 14.3298 4.10744 15.8926C5.67025 17.4554 7.78986 18.3333 10 18.3333Z" stroke="#C5C6C7" stroke-width="1.66667" stroke-linecap="round" stroke-linejoin="round"/>
</g>
<defs>
<clipPath id="clip0_0_25">
<rect width="20" height="20" fill="white"/>
</clipPath>
</defs>
</svg>
