<svg preserveAspectRatio="none" overflow="visible" style="display: block;" width="20" height="20" viewBox="0 0 20 20" fill="none" xmlns="http://www.w3.org/2000/svg">
<g id="icon" clip-path="url(#clip0_0_14)">
<path id="Vector" d="M18.3333 10C18.3333 7.78986 17.4554 5.67025 15.8926 4.10744C14.3298 2.54464 12.2101 1.66667 10 1.66667C7.78986 1.66667 5.67025 2.54464 4.10744 4.10744C2.54464 5.67025 1.66667 7.78986 1.66667 10C1.66667 12.2101 2.54464 14.3298 4.10744 15.8926C5.67025 17.4554 7.78986 18.3333 10 18.3333C12.2101 18.3333 14.3298 17.4554 15.8926 15.8926C17.4554 14.3298 18.3333 12.2101 18.3333 10ZM10 18.3333C12.0498 16.0416 13.1831 13.0747 13.1831 10C13.1831 6.92528 12.0498 3.95843 10 1.66667M10 18.3333C7.95019 16.0416 6.81695 13.0747 6.81695 10C6.81695 6.92528 7.95019 3.95843 10 1.66667M18.3333 10H1.66667" stroke="#C5C6C7" stroke-width="1.66667" stroke-linecap="round" stroke-linejoin="round"/>
</g>
<defs>
<clipPath id="clip0_0_14">
<rect width="20" height="20" fill="white"/>
</clipPath>
</defs>
</svg>
